<?xml version="1.0" encoding="UTF-8" standalone="no"?>
<svg xmlns:dc="http://purl.org/dc/elements/1.1/" xmlns:cc="http://creativecommons.org/ns#" xmlns:rdf="http://www.w3.org/1999/02/22-rdf-syntax-ns#" xmlns:svg="http://www.w3.org/2000/svg" xmlns="http://www.w3.org/2000/svg" viewBox="0 0 1097.5333 1246.36" height="1246.36" width="1097.5333" xml:space="preserve" id="svg2" version="1.1">
  <metadata id="metadata8">
    <rdf:RDF>
      <cc:Work rdf:about="">
        <dc:format>
          image/svg+xml
        </dc:format>
        <dc:type rdf:resource="http://purl.org/dc/dcmitype/StillImage"/>
      </cc:Work>
    </rdf:RDF>
  </metadata>
  <defs id="defs6"/>
  <g transform="matrix(1.3333333,0,0,-1.3333333,0,1246.36)" id="g10">
    <g transform="scale(0.1)" id="g12">
      <path id="path14" style="fill:#57c26a;fill-opacity:1;fill-rule:nonzero;stroke:none" d="m 2442.91,6500.27 c 0,-562.35 -455.88,-1018.23 -1018.22,-1018.23 -562.354,0 -1018.233,455.88 -1018.233,1018.23 0,562.35 455.879,1018.22 1018.233,1018.22 562.34,0 1018.22,-455.87 1018.22,-1018.22"/>
      <path id="path16" style="fill:#57c26a;fill-opacity:1;fill-rule:nonzero;stroke:none" d="m 5702.6,2231.92 c 0,-562.34 -455.88,-1018.22 -1018.23,-1018.22 -562.35,0 -1018.22,455.88 -1018.22,1018.22 0,562.36 455.87,1018.23 1018.22,1018.23 562.35,0 1018.23,-455.87 1018.23,-1018.23"/>
      <path id="path18" style="fill:#231f20;fill-opacity:1;fill-rule:nonzero;stroke:none" d="m 4053.02,2116.61 c 0,-162.59 -131.81,-294.4 -294.39,-294.4 -162.59,0 -294.4,131.81 -294.4,294.4 0,162.6 131.81,294.4 294.4,294.4 162.58,0 294.39,-131.8 294.39,-294.4"/>
      <path id="path20" style="fill:#231f20;fill-opacity:1;fill-rule:nonzero;stroke:none" d="m 2984.63,6562.81 c -28.45,0 -51.59,-23.14 -51.59,-51.59 0,-28.45 23.14,-51.59 51.59,-51.59 28.45,0 51.59,23.14 51.59,51.59 0,28.45 -23.14,51.59 -51.59,51.59 z m 0,-109.25 c -31.8,0 -57.65,25.86 -57.65,57.66 0,31.8 25.85,57.66 57.65,57.66 31.8,0 57.67,-25.86 57.67,-57.66 0,-31.8 -25.87,-57.66 -57.67,-57.66"/>
      <path id="path22" style="fill:#231f20;fill-opacity:1;fill-rule:nonzero;stroke:none" d="m 2596.74,2756.46 c -28.45,0 -51.59,-23.15 -51.59,-51.6 0,-28.45 23.14,-51.58 51.59,-51.58 28.45,0 51.59,23.13 51.59,51.58 0,28.45 -23.14,51.6 -51.59,51.6 z m 0,-109.26 c -31.8,0 -57.66,25.87 -57.66,57.66 0,31.8 25.86,57.67 57.66,57.67 31.8,0 57.67,-25.87 57.67,-57.67 0,-31.79 -25.87,-57.66 -57.67,-57.66"/>
      <path id="path24" style="fill:#231f20;fill-opacity:1;fill-rule:nonzero;stroke:none" d="m 4574.98,6137.91 c -28.44,0 -51.59,-23.15 -51.59,-51.59 0,-28.45 23.15,-51.6 51.59,-51.6 28.45,0 51.59,23.15 51.59,51.6 0,28.44 -23.14,51.59 -51.59,51.59 z m 0,-109.26 c -31.79,0 -57.66,25.87 -57.66,57.67 0,31.79 25.87,57.66 57.66,57.66 31.8,0 57.67,-25.87 57.67,-57.66 0,-31.8 -25.87,-57.67 -57.67,-57.67"/>
      <path id="path26" style="fill:#231f20;fill-opacity:1;fill-rule:nonzero;stroke:none" d="m 3642.71,5040.64 c -28.45,0 -51.59,-23.14 -51.59,-51.59 0,-28.45 23.14,-51.59 51.59,-51.59 28.45,0 51.59,23.14 51.59,51.59 0,28.45 -23.14,51.59 -51.59,51.59 z m 0,-109.26 c -31.8,0 -57.66,25.87 -57.66,57.67 0,31.8 25.86,57.66 57.66,57.66 31.79,0 57.66,-25.86 57.66,-57.66 0,-31.8 -25.87,-57.67 -57.66,-57.67"/>
      <path id="path28" style="fill:#57c26a;fill-opacity:1;fill-rule:nonzero;stroke:none" d="m 5448.19,6443.52 c -218.64,0 -395.87,-177.23 -395.87,-395.88 0,-218.63 177.23,-395.87 395.87,-395.87 218.64,0 395.87,177.24 395.87,395.87 0,218.65 -177.23,395.88 -395.87,395.88"/>
      <path id="path30" style="fill:#231f20;fill-opacity:1;fill-rule:nonzero;stroke:none" d="m 3858.56,4449.74 285.67,410.65 c 31.11,44.73 97.29,44.73 128.4,0 l 285.67,-410.65 c 36.07,-51.85 -1.03,-122.87 -64.21,-122.87 h -571.33 c -63.17,0 -100.28,71.02 -64.2,122.87"/>
      <path id="path32" style="fill:#f0ac2b;fill-opacity:1;fill-rule:nonzero;stroke:none" d="m 1304.17,1910.27 473.1,680.08 c 51.53,74.08 161.12,74.08 212.65,0 l 473.1,-680.08 c 59.75,-85.88 -1.71,-203.49 -106.32,-203.49 h -946.2 c -104.62,0 -166.07,117.61 -106.33,203.49"/>
      <path id="path34" style="fill:#f0ac2b;fill-opacity:1;fill-rule:nonzero;stroke:none" d="m 2242.45,4849.77 -137.9,95.93 c -15.02,10.45 -15.02,32.67 0,43.12 l 137.9,95.92 c 17.42,12.12 41.26,-0.34 41.26,-21.55 v -191.85 c 0,-21.22 -23.84,-33.68 -41.26,-21.57"/>
      <path id="path36" style="fill:#f0ac2b;fill-opacity:1;fill-rule:nonzero;stroke:none" d="m 3955.62,5719.84 -410.66,285.67 c -44.72,31.12 -44.72,97.29 0,128.4 l 410.66,285.67 c 51.85,36.07 122.87,-1.04 122.87,-64.2 v -571.34 c 0,-63.16 -71.02,-100.27 -122.87,-64.2"/>
      <path id="path38" style="fill:#231f20;fill-opacity:1;fill-rule:nonzero;stroke:none" d="m 2147.98,6024.25 134.9,193.9 c 14.69,21.13 45.94,21.13 60.63,0 l 134.9,-193.9 c 17.03,-24.49 -0.49,-58.02 -30.32,-58.02 H 2178.3 c -29.83,0 -47.35,33.53 -30.32,58.02"/>
      <path id="path40" style="fill:#e92ea1;fill-opacity:1;fill-rule:nonzero;stroke:none" d="m 2134.81,2939.02 h -518.16 c -118.04,0 -213.74,95.7 -213.74,213.74 v 771.85 c 0,118.04 95.7,213.74 213.74,213.74 h 518.16 c 118.04,0 213.74,-95.7 213.74,-213.74 v -771.85 c 0,-118.04 -95.7,-213.74 -213.74,-213.74"/>
      <path id="path42" style="fill:#e92ea1;fill-opacity:1;fill-rule:nonzero;stroke:none" d="m 6198.68,4808.14 v 505.51 c 0,115.17 93.36,208.53 208.53,208.53 h 753 c 115.16,0 208.52,-93.36 208.52,-208.53 v -505.51 c 0,-115.16 -93.36,-208.52 -208.52,-208.52 h -753 c -115.17,0 -208.53,93.36 -208.53,208.52"/>
      <path id="path44" style="fill:#e92ea1;fill-opacity:1;fill-rule:nonzero;stroke:none" d="m 5035.53,7919.21 h -464.58 c -105.83,0 -191.63,85.8 -191.63,191.64 v 692.03 c 0,105.84 85.8,191.64 191.63,191.64 h 464.58 c 105.84,0 191.64,-85.8 191.64,-191.64 v -692.03 c 0,-105.84 -85.8,-191.64 -191.64,-191.64"/>
      <path id="path46" style="fill:#ee2c3e;fill-opacity:1;fill-rule:nonzero;stroke:none" d="m 902.289,4122.64 v 32.16 c 0,84.33 68.348,152.68 152.671,152.68 h 551.32 c 84.32,0 152.67,-68.35 152.67,-152.68 v -32.16 c 0,-84.31 -68.35,-152.66 -152.67,-152.66 h -551.32 c -84.323,0 -152.671,68.35 -152.671,152.66"/>
      <path id="path48" style="fill:#ee2c3e;fill-opacity:1;fill-rule:nonzero;stroke:none" d="m 902.289,3669.38 v 32.16 c 0,84.33 68.348,152.68 152.671,152.68 h 551.32 c 84.32,0 152.67,-68.35 152.67,-152.68 v -32.16 c 0,-84.31 -68.35,-152.66 -152.67,-152.66 h -551.32 c -84.323,0 -152.671,68.35 -152.671,152.66"/>
      <path id="path50" style="fill:#ee2c3e;fill-opacity:1;fill-rule:nonzero;stroke:none" d="m 5724.27,1743.67 h 32.16 c 84.31,0 152.66,-68.36 152.66,-152.68 V 1039.68 C 5909.09,955.359 5840.74,887 5756.43,887 h -32.16 c -84.33,0 -152.68,68.359 -152.68,152.68 v 551.31 c 0,84.32 68.35,152.68 152.68,152.68"/>
      <path id="path52" style="fill:#ee2c3e;fill-opacity:1;fill-rule:nonzero;stroke:none" d="m 5271.01,1743.67 h 32.16 c 84.31,0 152.66,-68.36 152.66,-152.68 V 1039.68 C 5455.83,955.359 5387.48,887 5303.17,887 h -32.16 c -84.33,0 -152.68,68.359 -152.68,152.68 v 551.31 c 0,84.32 68.35,152.68 152.68,152.68"/>
      <path id="path54" style="fill:#ee2c3e;fill-opacity:1;fill-rule:nonzero;stroke:none" d="m 4900.24,7945.27 v 34.27 c 0,89.84 72.84,162.68 162.68,162.68 h 587.45 c 89.86,0 162.69,-72.84 162.69,-162.68 v -34.27 c 0,-89.84 -72.83,-162.67 -162.69,-162.67 h -587.45 c -89.84,0 -162.68,72.83 -162.68,162.67"/>
      <path id="path56" style="fill:#ee2c3e;fill-opacity:1;fill-rule:nonzero;stroke:none" d="m 4900.24,7462.3 v 34.27 c 0,89.84 72.84,162.68 162.68,162.68 h 587.45 c 89.86,0 162.69,-72.84 162.69,-162.68 v -34.27 c 0,-89.84 -72.83,-162.67 -162.69,-162.67 h -587.45 c -89.84,0 -162.68,72.83 -162.68,162.67"/>
      <path id="path58" style="fill:#231f20;fill-opacity:1;fill-rule:nonzero;stroke:none" d="m 924.719,1444.08 c -200.301,0 -363.262,-162.96 -363.262,-363.24 v -79.02 c 0,-200.3 162.961,-363.261 363.262,-363.261 H 2823.19 c 200.31,0 363.27,162.961 363.27,363.261 v 79.02 c 0,200.28 -162.96,363.24 -363.27,363.24 z M 2823.19,614.961 H 924.719 c -213.328,0 -386.864,173.527 -386.864,386.859 v 79.02 c 0,213.31 173.536,386.85 386.864,386.85 H 2823.19 c 213.34,0 386.87,-173.54 386.87,-386.85 v -79.02 c 0,-213.332 -173.53,-386.859 -386.87,-386.859"/>
      <path id="path60" style="fill:#231f20;fill-opacity:1;fill-rule:nonzero;stroke:none" d="m 5869.59,4322.46 c -200.28,0 -363.24,-162.96 -363.24,-363.27 v -78.99 c 0,-200.3 162.96,-363.26 363.24,-363.26 h 1898.49 c 200.31,0 363.27,162.96 363.27,363.26 v 78.99 c 0,200.31 -162.96,363.27 -363.27,363.27 z M 7768.08,3493.33 H 5869.59 c -213.31,0 -386.84,173.54 -386.84,386.87 v 78.99 c 0,213.34 173.53,386.87 386.84,386.87 h 1898.49 c 213.34,0 386.87,-173.53 386.87,-386.87 v -78.99 c 0,-213.33 -173.53,-386.87 -386.87,-386.87"/>
      <path id="path62" style="fill:#231f20;fill-opacity:1;fill-rule:nonzero;stroke:none" d="m 6687,2735.58 c -200.28,0 -363.24,-162.96 -363.24,-363.26 V 473.84 c 0,-200.32 162.96,-363.281 363.24,-363.281 h 79.02 c 200.3,0 363.26,162.961 363.26,363.281 v 1898.48 c 0,200.3 -162.96,363.26 -363.26,363.26 z M 6766.02,86.9609 H 6687 c -213.31,0 -386.84,173.5391 -386.84,386.8791 v 1898.48 c 0,213.33 173.53,386.88 386.84,386.88 h 79.02 c 213.33,0 386.87,-173.55 386.87,-386.88 V 473.84 c 0,-213.34 -173.54,-386.8791 -386.87,-386.8791"/>
      <path id="path64" style="fill:#231f20;fill-opacity:1;fill-rule:nonzero;stroke:none" d="m 3654.18,9237.1 c -421.3,0 -764.04,-342.76 -764.04,-764.06 v -3927.2 c 0,-421.29 342.74,-764.06 764.04,-764.06 h 163.44 c 421.3,0 764.04,342.77 764.04,764.06 v 3927.2 c 0,421.3 -342.74,764.06 -764.04,764.06 z m 163.44,-5478.93 h -163.44 c -434.31,0 -787.64,353.35 -787.64,787.67 v 3927.2 c 0,434.32 353.33,787.67 787.64,787.67 h 163.44 c 434.33,0 787.66,-353.35 787.66,-787.67 v -3927.2 c 0,-434.32 -353.33,-787.67 -787.66,-787.67"/>
      <path id="path66" style="fill:#57c26a;fill-opacity:1;fill-rule:nonzero;stroke:none" d="m 3115.14,4841.96 c 0,-162.59 -131.81,-294.39 -294.4,-294.39 -162.58,0 -294.39,131.8 -294.39,294.39 0,162.59 131.81,294.4 294.39,294.4 162.59,0 294.4,-131.81 294.4,-294.4"/>
      <path id="path68" style="fill:#231f20;fill-opacity:1;fill-rule:nonzero;stroke:none" d="m 463.449,3030.88 c -200.301,0 -363.261,-162.95 -363.261,-363.26 v -78.99 c 0,-200.31 162.96,-363.26 363.261,-363.26 H 2361.92 c 200.3,0 363.26,162.95 363.26,363.26 v 78.99 c 0,200.31 -162.96,363.26 -363.26,363.26 z M 2361.92,2201.76 H 463.449 c -213.328,0 -386.8748,173.53 -386.8748,386.87 v 78.99 c 0,213.33 173.5468,386.87 386.8748,386.87 H 2361.92 c 213.33,0 386.87,-173.54 386.87,-386.87 v -78.99 c 0,-213.34 -173.54,-386.87 -386.87,-386.87"/>
    </g>
  </g>
</svg>
